STARTFONT 2.1
COMMENT Font converted from PSF to BDF.
FONT lat2-08.psf
SIZE 8 72 72
FONTBOUNDINGBOX 8 8 0 -2
STARTPROPERTIES 9
POINT_SIZE 80
PIXEL_SIZE 8
RESOLUTION_X 72
RESOLUTION_Y 72
FONT_ASCENT 7
FONT_DESCENT 1
AVERAGE_WIDTH 0
SPACING "C"
_XMBDFED_INFO "Edited with xmbdfed 4.3."
ENDPROPERTIES
CHARS 256
STARTCHAR char0
ENCODING 0
SWIDTH 0 0
DWIDTH 0 0
BBX 8 8 0 -2
BITMAP
7E
C3
99
F3
E7
FF
E7
7E
ENDCHAR
STARTCHAR char1
ENCODING 1
SWIDTH 0 0
DWIDTH 0 0
BBX 8 8 0 -2
BITMAP
00
76
DC
00
76
DC
00
00
ENDCHAR
STARTCHAR char2
ENCODING 2
SWIDTH 0 0
DWIDTH 0 0
BBX 8 8 0 -2
BITMAP
6E
D8
D8
DC
D8
D8
6E
00
ENDCHAR
STARTCHAR char3
ENCODING 3
SWIDTH 0 0
DWIDTH 0 0
BBX 8 8 0 -2
BITMAP
00
00
6E
D8
DE
D8
6E
00
ENDCHAR
STARTCHAR char4
ENCODING 4
SWIDTH 0 0
DWIDTH 0 0
BBX 8 8 0 -2
BITMAP
10
38
7C
FE
7C
38
10
00
ENDCHAR
STARTCHAR char5
ENCODING 5
SWIDTH 0 0
DWIDTH 0 0
BBX 8 8 0 -2
BITMAP
88
F8
88
00
3E
08
08
08
ENDCHAR
STARTCHAR char6
ENCODING 6
SWIDTH 0 0
DWIDTH 0 0
BBX 8 8 0 -2
BITMAP
F0
80
C0
80
3C
20
30
20
ENDCHAR
STARTCHAR char7
ENCODING 7
SWIDTH 0 0
DWIDTH 0 0
BBX 8 8 0 -2
BITMAP
60
80
80
8C
6A
0C
0A
0A
ENDCHAR
STARTCHAR char8
ENCODING 8
SWIDTH 0 0
DWIDTH 0 0
BBX 8 8 0 -2
BITMAP
80
80
80
EE
08
0C
08
08
ENDCHAR
STARTCHAR char9
ENCODING 9
SWIDTH 0 0
DWIDTH 0 0
BBX 8 8 0 -2
BITMAP
11
44
11
44
11
44
11
44
ENDCHAR
STARTCHAR char10
ENCODING 10
SWIDTH 0 0
DWIDTH 0 0
BBX 8 8 0 -2
BITMAP
55
AA
55
AA
55
AA
55
AA
ENDCHAR
STARTCHAR char11
ENCODING 11
SWIDTH 0 0
DWIDTH 0 0
BBX 8 8 0 -2
BITMAP
DD
77
DD
77
DD
77
DD
77
ENDCHAR
STARTCHAR char12
ENCODING 12
SWIDTH 0 0
DWIDTH 0 0
BBX 8 8 0 -2
BITMAP
FF
FF
FF
FF
FF
FF
FF
FF
ENDCHAR
STARTCHAR char13
ENCODING 13
SWIDTH 0 0
DWIDTH 0 0
BBX 8 8 0 -2
BITMAP
00
00
00
00
00
FF
FF
FF
ENDCHAR
STARTCHAR char14
ENCODING 14
SWIDTH 0 0
DWIDTH 0 0
BBX 8 8 0 -2
BITMAP
FF
FF
FF
FF
FF
00
00
00
ENDCHAR
STARTCHAR char15
ENCODING 15
SWIDTH 0 0
DWIDTH 0 0
BBX 8 8 0 -2
BITMAP
F0
F0
F0
F0
F0
F0
F0
F0
ENDCHAR
STARTCHAR char16
ENCODING 16
SWIDTH 0 0
DWIDTH 0 0
BBX 8 8 0 -2
BITMAP
0F
0F
0F
0F
0F
0F
0F
0F
ENDCHAR
STARTCHAR char17
ENCODING 17
SWIDTH 0 0
DWIDTH 0 0
BBX 8 8 0 -2
BITMAP
90
D0
B0
90
08
08
08
0E
ENDCHAR
STARTCHAR char18
ENCODING 18
SWIDTH 0 0
DWIDTH 0 0
BBX 8 8 0 -2
BITMAP
88
50
20
00
1C
08
08
08
ENDCHAR
STARTCHAR char19
ENCODING 19
SWIDTH 0 0
DWIDTH 0 0
BBX 8 8 0 -2
BITMAP
00
0E
18
30
7E
00
7E
00
ENDCHAR
STARTCHAR char20
ENCODING 20
SWIDTH 0 0
DWIDTH 0 0
BBX 8 8 0 -2
BITMAP
00
70
18
0C
7E
00
7E
00
ENDCHAR
STARTCHAR char21
ENCODING 21
SWIDTH 0 0
DWIDTH 0 0
BBX 8 8 0 -2
BITMAP
00
0C
FE
30
FE
60
00
00
ENDCHAR
STARTCHAR char22
ENCODING 22
SWIDTH 0 0
DWIDTH 0 0
BBX 8 8 0 -2
BITMAP
00
06
1E
7E
7E
1E
06
00
ENDCHAR
STARTCHAR char23
ENCODING 23
SWIDTH 0 0
DWIDTH 0 0
BBX 8 8 0 -2
BITMAP
00
C0
F0
FC
FC
F0
C0
00
ENDCHAR
STARTCHAR char24
ENCODING 24
SWIDTH 0 0
DWIDTH 0 0
BBX 8 8 0 -2
BITMAP
18
3C
7E
18
18
18
18
00
ENDCHAR
STARTCHAR char25
ENCODING 25
SWIDTH 0 0
DWIDTH 0 0
BBX 8 8 0 -2
BITMAP
18
18
18
18
7E
3C
18
00
ENDCHAR
STARTCHAR char26
ENCODING 26
SWIDTH 0 0
DWIDTH 0 0
BBX 8 8 0 -2
BITMAP
00
0C
0E
FF
0E
0C
00
00
ENDCHAR
STARTCHAR char27
ENCODING 27
SWIDTH 0 0
DWIDTH 0 0
BBX 8 8 0 -2
BITMAP
00
30
70
FE
70
30
00
00
ENDCHAR
STARTCHAR char28
ENCODING 28
SWIDTH 0 0
DWIDTH 0 0
BBX 8 8 0 -2
BITMAP
18
3C
7E
18
18
7E
3C
18
ENDCHAR
STARTCHAR char29
ENCODING 29
SWIDTH 0 0
DWIDTH 0 0
BBX 8 8 0 -2
BITMAP
00
24
66
FF
66
24
00
00
ENDCHAR
STARTCHAR char30
ENCODING 30
SWIDTH 0 0
DWIDTH 0 0
BBX 8 8 0 -2
BITMAP
06
06
36
66
FE
60
30
00
ENDCHAR
STARTCHAR char31
ENCODING 31
SWIDTH 0 0
DWIDTH 0 0
BBX 8 8 0 -2
BITMAP
00
C0
7C
6E
6C
6C
6C
00
ENDCHAR
STARTCHAR char32
ENCODING 32
SWIDTH 0 0
DWIDTH 0 0
BBX 8 8 0 -2
BITMAP
00
00
00
00
00
00
00
00
ENDCHAR
STARTCHAR char33
ENCODING 33
SWIDTH 0 0
DWIDTH 0 0
BBX 8 8 0 -2
BITMAP
00
18
3C
18
18
00
18
00
ENDCHAR
STARTCHAR char34
ENCODING 34
SWIDTH 0 0
DWIDTH 0 0
BBX 8 8 0 -2
BITMAP
00
36
36
14
00
00
00
00
ENDCHAR
STARTCHAR char35
ENCODING 35
SWIDTH 0 0
DWIDTH 0 0
BBX 8 8 0 -2
BITMAP
00
6C
FE
6C
FE
6C
00
00
ENDCHAR
STARTCHAR char36
ENCODING 36
SWIDTH 0 0
DWIDTH 0 0
BBX 8 8 0 -2
BITMAP
00
30
7C
C0
78
0C
F8
30
ENDCHAR
STARTCHAR char37
ENCODING 37
SWIDTH 0 0
DWIDTH 0 0
BBX 8 8 0 -2
BITMAP
00
C6
CC
18
30
66
C6
00
ENDCHAR
STARTCHAR char38
ENCODING 38
SWIDTH 0 0
DWIDTH 0 0
BBX 8 8 0 -2
BITMAP
00
00
38
6C
3A
7E
CC
76
ENDCHAR
STARTCHAR char39
ENCODING 39
SWIDTH 0 0
DWIDTH 0 0
BBX 8 8 0 -2
BITMAP
0C
0C
18
00
00
00
00
00
ENDCHAR
STARTCHAR char40
ENCODING 40
SWIDTH 0 0
DWIDTH 0 0
BBX 8 8 0 -2
BITMAP
00
0C
18
30
30
30
18
0C
ENDCHAR
STARTCHAR char41
ENCODING 41
SWIDTH 0 0
DWIDTH 0 0
BBX 8 8 0 -2
BITMAP
00
30
18
0C
0C
0C
18
30
ENDCHAR
STARTCHAR char42
ENCODING 42
SWIDTH 0 0
DWIDTH 0 0
BBX 8 8 0 -2
BITMAP
00
00
6C
38
FE
38
6C
00
ENDCHAR
STARTCHAR char43
ENCODING 43
SWIDTH 0 0
DWIDTH 0 0
BBX 8 8 0 -2
BITMAP
00
00
18
18
7E
18
18
00
ENDCHAR
STARTCHAR char44
ENCODING 44
SWIDTH 0 0
DWIDTH 0 0
BBX 8 8 0 -2
BITMAP
00
00
00
00
00
0C
0C
18
ENDCHAR
STARTCHAR char45
ENCODING 45
SWIDTH 0 0
DWIDTH 0 0
BBX 8 8 0 -2
BITMAP
00
00
00
00
FE
00
00
00
ENDCHAR
STARTCHAR char46
ENCODING 46
SWIDTH 0 0
DWIDTH 0 0
BBX 8 8 0 -2
BITMAP
00
00
00
00
00
00
18
18
ENDCHAR
STARTCHAR char47
ENCODING 47
SWIDTH 0 0
DWIDTH 0 0
BBX 8 8 0 -2
BITMAP
00
06
0C
18
30
60
C0
00
ENDCHAR
STARTCHAR char48
ENCODING 48
SWIDTH 0 0
DWIDTH 0 0
BBX 8 8 0 -2
BITMAP
00
7C
C6
C6
D6
C6
C6
7C
ENDCHAR
STARTCHAR char49
ENCODING 49
SWIDTH 0 0
DWIDTH 0 0
BBX 8 8 0 -2
BITMAP
00
18
78
18
18
18
18
7E
ENDCHAR
STARTCHAR char50
ENCODING 50
SWIDTH 0 0
DWIDTH 0 0
BBX 8 8 0 -2
BITMAP
00
7C
C6
8C
38
60
C2
FE
ENDCHAR
STARTCHAR char51
ENCODING 51
SWIDTH 0 0
DWIDTH 0 0
BBX 8 8 0 -2
BITMAP
00
7C
C6
06
3C
06
C6
7C
ENDCHAR
STARTCHAR char52
ENCODING 52
SWIDTH 0 0
DWIDTH 0 0
BBX 8 8 0 -2
BITMAP
00
1C
3C
6C
CC
FE
0C
1E
ENDCHAR
STARTCHAR char53
ENCODING 53
SWIDTH 0 0
DWIDTH 0 0
BBX 8 8 0 -2
BITMAP
00
FE
C0
FC
06
06
C6
7C
ENDCHAR
STARTCHAR char54
ENCODING 54
SWIDTH 0 0
DWIDTH 0 0
BBX 8 8 0 -2
BITMAP
00
7C
C6
C0
FC
C6
C6
7C
ENDCHAR
STARTCHAR char55
ENCODING 55
SWIDTH 0 0
DWIDTH 0 0
BBX 8 8 0 -2
BITMAP
00
FE
C6
06
0C
18
30
30
ENDCHAR
STARTCHAR char56
ENCODING 56
SWIDTH 0 0
DWIDTH 0 0
BBX 8 8 0 -2
BITMAP
00
7C
C6
C6
7C
C6
C6
7C
ENDCHAR
STARTCHAR char57
ENCODING 57
SWIDTH 0 0
DWIDTH 0 0
BBX 8 8 0 -2
BITMAP
00
7C
C6
C6
7E
06
C6
7C
ENDCHAR
STARTCHAR char58
ENCODING 58
SWIDTH 0 0
DWIDTH 0 0
BBX 8 8 0 -2
BITMAP
00
0C
0C
00
00
0C
0C
00
ENDCHAR
STARTCHAR char59
ENCODING 59
SWIDTH 0 0
DWIDTH 0 0
BBX 8 8 0 -2
BITMAP
00
0C
0C
00
00
0C
0C
18
ENDCHAR
STARTCHAR char60
ENCODING 60
SWIDTH 0 0
DWIDTH 0 0
BBX 8 8 0 -2
BITMAP
00
18
30
60
C0
60
30
18
ENDCHAR
STARTCHAR char61
ENCODING 61
SWIDTH 0 0
DWIDTH 0 0
BBX 8 8 0 -2
BITMAP
00
00
00
FE
00
FE
00
00
ENDCHAR
STARTCHAR char62
ENCODING 62
SWIDTH 0 0
DWIDTH 0 0
BBX 8 8 0 -2
BITMAP
00
30
18
0C
06
0C
18
30
ENDCHAR
STARTCHAR char63
ENCODING 63
SWIDTH 0 0
DWIDTH 0 0
BBX 8 8 0 -2
BITMAP
00
7C
C6
CC
18
18
00
18
ENDCHAR
STARTCHAR char64
ENCODING 64
SWIDTH 0 0
DWIDTH 0 0
BBX 8 8 0 -2
BITMAP
00
7C
C6
C6
DE
DC
C0
7E
ENDCHAR
STARTCHAR char65
ENCODING 65
SWIDTH 0 0
DWIDTH 0 0
BBX 8 8 0 -2
BITMAP
00
38
6C
C6
C6
FE
C6
C6
ENDCHAR
STARTCHAR char66
ENCODING 66
SWIDTH 0 0
DWIDTH 0 0
BBX 8 8 0 -2
BITMAP
00
FC
66
66
7C
66
66
FC
ENDCHAR
STARTCHAR char67
ENCODING 67
SWIDTH 0 0
DWIDTH 0 0
BBX 8 8 0 -2
BITMAP
00
3C
66
C2
C0
C2
66
3C
ENDCHAR
STARTCHAR char68
ENCODING 68
SWIDTH 0 0
DWIDTH 0 0
BBX 8 8 0 -2
BITMAP
00
F8
6C
66
66
66
6C
F8
ENDCHAR
STARTCHAR char69
ENCODING 69
SWIDTH 0 0
DWIDTH 0 0
BBX 8 8 0 -2
BITMAP
00
FE
66
60
7C
60
66
FE
ENDCHAR
STARTCHAR char70
ENCODING 70
SWIDTH 0 0
DWIDTH 0 0
BBX 8 8 0 -2
BITMAP
00
FE
66
60
7C
60
60
F0
ENDCHAR
STARTCHAR char71
ENCODING 71
SWIDTH 0 0
DWIDTH 0 0
BBX 8 8 0 -2
BITMAP
00
7C
C6
C0
CE
C6
C6
7C
ENDCHAR
STARTCHAR char72
ENCODING 72
SWIDTH 0 0
DWIDTH 0 0
BBX 8 8 0 -2
BITMAP
00
C6
C6
C6
FE
C6
C6
C6
ENDCHAR
STARTCHAR char73
ENCODING 73
SWIDTH 0 0
DWIDTH 0 0
BBX 8 8 0 -2
BITMAP
00
3C
18
18
18
18
18
3C
ENDCHAR
STARTCHAR char74
ENCODING 74
SWIDTH 0 0
DWIDTH 0 0
BBX 8 8 0 -2
BITMAP
00
3C
18
18
18
D8
D8
70
ENDCHAR
STARTCHAR char75
ENCODING 75
SWIDTH 0 0
DWIDTH 0 0
BBX 8 8 0 -2
BITMAP
00
C6
CC
D8
F0
D8
CC
C6
ENDCHAR
STARTCHAR char76
ENCODING 76
SWIDTH 0 0
DWIDTH 0 0
BBX 8 8 0 -2
BITMAP
00
F0
60
60
60
62
66
FE
ENDCHAR
STARTCHAR char77
ENCODING 77
SWIDTH 0 0
DWIDTH 0 0
BBX 8 8 0 -2
BITMAP
00
C6
C6
EE
FE
D6
C6
C6
ENDCHAR
STARTCHAR char78
ENCODING 78
SWIDTH 0 0
DWIDTH 0 0
BBX 8 8 0 -2
BITMAP
00
C6
E6
F6
DE
CE
C6
C6
ENDCHAR
STARTCHAR char79
ENCODING 79
SWIDTH 0 0
DWIDTH 0 0
BBX 8 8 0 -2
BITMAP
00
7C
C6
C6
C6
C6
C6
7C
ENDCHAR
STARTCHAR char80
ENCODING 80
SWIDTH 0 0
DWIDTH 0 0
BBX 8 8 0 -2
BITMAP
00
FC
66
66
7C
60
60
F0
ENDCHAR
STARTCHAR char81
ENCODING 81
SWIDTH 0 0
DWIDTH 0 0
BBX 8 8 0 -2
BITMAP
00
7C
C6
C6
D6
D6
7C
06
ENDCHAR
STARTCHAR char82
ENCODING 82
SWIDTH 0 0
DWIDTH 0 0
BBX 8 8 0 -2
BITMAP
00
FC
66
66
7C
78
66
E6
ENDCHAR
STARTCHAR char83
ENCODING 83
SWIDTH 0 0
DWIDTH 0 0
BBX 8 8 0 -2
BITMAP
00
7C
C6
C0
7C
06
C6
7C
ENDCHAR
STARTCHAR char84
ENCODING 84
SWIDTH 0 0
DWIDTH 0 0
BBX 8 8 0 -2
BITMAP
00
FF
DB
99
18
18
18
3C
ENDCHAR
STARTCHAR char85
ENCODING 85
SWIDTH 0 0
DWIDTH 0 0
BBX 8 8 0 -2
BITMAP
00
C6
C6
C6
C6
C6
C6
7C
ENDCHAR
STARTCHAR char86
ENCODING 86
SWIDTH 0 0
DWIDTH 0 0
BBX 8 8 0 -2
BITMAP
00
C6
C6
C6
C6
6C
38
10
ENDCHAR
STARTCHAR char87
ENCODING 87
SWIDTH 0 0
DWIDTH 0 0
BBX 8 8 0 -2
BITMAP
00
C6
C6
D6
D6
FE
EE
6C
ENDCHAR
STARTCHAR char88
ENCODING 88
SWIDTH 0 0
DWIDTH 0 0
BBX 8 8 0 -2
BITMAP
00
C6
C6
6C
38
6C
C6
C6
ENDCHAR
STARTCHAR char89
ENCODING 89
SWIDTH 0 0
DWIDTH 0 0
BBX 8 8 0 -2
BITMAP
00
66
66
66
3C
18
18
3C
ENDCHAR
STARTCHAR char90
ENCODING 90
SWIDTH 0 0
DWIDTH 0 0
BBX 8 8 0 -2
BITMAP
00
FE
C6
8C
38
62
C6
FE
ENDCHAR
STARTCHAR char91
ENCODING 91
SWIDTH 0 0
DWIDTH 0 0
BBX 8 8 0 -2
BITMAP
00
7C
60
60
60
60
60
7C
ENDCHAR
STARTCHAR char92
ENCODING 92
SWIDTH 0 0
DWIDTH 0 0
BBX 8 8 0 -2
BITMAP
00
C0
60
30
18
0C
06
00
ENDCHAR
STARTCHAR char93
ENCODING 93
SWIDTH 0 0
DWIDTH 0 0
BBX 8 8 0 -2
BITMAP
00
7C
0C
0C
0C
0C
0C
7C
ENDCHAR
STARTCHAR char94
ENCODING 94
SWIDTH 0 0
DWIDTH 0 0
BBX 8 8 0 -2
BITMAP
00
38
6C
C6
00
00
00
00
ENDCHAR
STARTCHAR char95
ENCODING 95
SWIDTH 0 0
DWIDTH 0 0
BBX 8 8 0 -2
BITMAP
00
00
00
00
00
00
00
FF
ENDCHAR
STARTCHAR char96
ENCODING 96
SWIDTH 0 0
DWIDTH 0 0
BBX 8 8 0 -2
BITMAP
00
18
18
0C
00
00
00
00
ENDCHAR
STARTCHAR char97
ENCODING 97
SWIDTH 0 0
DWIDTH 0 0
BBX 8 8 0 -2
BITMAP
00
00
00
78
0C
7C
CC
76
ENDCHAR
STARTCHAR char98
ENCODING 98
SWIDTH 0 0
DWIDTH 0 0
BBX 8 8 0 -2
BITMAP
00
00
E0
60
7C
66
66
FC
ENDCHAR
STARTCHAR char99
ENCODING 99
SWIDTH 0 0
DWIDTH 0 0
BBX 8 8 0 -2
BITMAP
00
00
00
78
CC
C0
CC
78
ENDCHAR
STARTCHAR char100
ENCODING 100
SWIDTH 0 0
DWIDTH 0 0
BBX 8 8 0 -2
BITMAP
00
00
1C
0C
7C
CC
CC
7E
ENDCHAR
STARTCHAR char101
ENCODING 101
SWIDTH 0 0
DWIDTH 0 0
BBX 8 8 0 -2
BITMAP
00
00
00
78
CC
FC
C0
78
ENDCHAR
STARTCHAR char102
ENCODING 102
SWIDTH 0 0
DWIDTH 0 0
BBX 8 8 0 -2
BITMAP
00
1C
36
30
FC
30
30
78
ENDCHAR
STARTCHAR char103
ENCODING 103
SWIDTH 0 0
DWIDTH 0 0
BBX 8 8 0 -2
BITMAP
00
00
76
CC
CC
7C
0C
F8
ENDCHAR
STARTCHAR char104
ENCODING 104
SWIDTH 0 0
DWIDTH 0 0
BBX 8 8 0 -2
BITMAP
00
00
E0
60
7C
66
66
E6
ENDCHAR
STARTCHAR char105
ENCODING 105
SWIDTH 0 0
DWIDTH 0 0
BBX 8 8 0 -2
BITMAP
00
18
18
00
38
18
18
3C
ENDCHAR
STARTCHAR char106
ENCODING 106
SWIDTH 0 0
DWIDTH 0 0
BBX 8 8 0 -2
BITMAP
0C
0C
00
1C
0C
0C
CC
78
ENDCHAR
STARTCHAR char107
ENCODING 107
SWIDTH 0 0
DWIDTH 0 0
BBX 8 8 0 -2
BITMAP
00
E0
66
6C
78
6C
66
E6
ENDCHAR
STARTCHAR char108
ENCODING 108
SWIDTH 0 0
DWIDTH 0 0
BBX 8 8 0 -2
BITMAP
00
38
18
18
18
18
18
3C
ENDCHAR
STARTCHAR char109
ENCODING 109
SWIDTH 0 0
DWIDTH 0 0
BBX 8 8 0 -2
BITMAP
00
00
00
EC
FE
D6
D6
C6
ENDCHAR
STARTCHAR char110
ENCODING 110
SWIDTH 0 0
DWIDTH 0 0
BBX 8 8 0 -2
BITMAP
00
00
00
DC
66
66
66
66
ENDCHAR
STARTCHAR char111
ENCODING 111
SWIDTH 0 0
DWIDTH 0 0
BBX 8 8 0 -2
BITMAP
00
00
00
00
7C
C6
C6
7C
ENDCHAR
STARTCHAR char112
ENCODING 112
SWIDTH 0 0
DWIDTH 0 0
BBX 8 8 0 -2
BITMAP
00
00
DC
66
66
7C
60
F0
ENDCHAR
STARTCHAR char113
ENCODING 113
SWIDTH 0 0
DWIDTH 0 0
BBX 8 8 0 -2
BITMAP
00
00
76
CC
CC
7C
0C
1E
ENDCHAR
STARTCHAR char114
ENCODING 114
SWIDTH 0 0
DWIDTH 0 0
BBX 8 8 0 -2
BITMAP
00
00
00
DC
66
60
60
F0
ENDCHAR
STARTCHAR char115
ENCODING 115
SWIDTH 0 0
DWIDTH 0 0
BBX 8 8 0 -2
BITMAP
00
00
00
7C
C0
78
0C
F8
ENDCHAR
STARTCHAR char116
ENCODING 116
SWIDTH 0 0
DWIDTH 0 0
BBX 8 8 0 -2
BITMAP
00
30
30
FC
30
30
36
1C
ENDCHAR
STARTCHAR char117
ENCODING 117
SWIDTH 0 0
DWIDTH 0 0
BBX 8 8 0 -2
BITMAP
00
00
00
CC
CC
CC
CC
76
ENDCHAR
STARTCHAR char118
ENCODING 118
SWIDTH 0 0
DWIDTH 0 0
BBX 8 8 0 -2
BITMAP
00
00
00
C6
C6
6C
38
10
ENDCHAR
STARTCHAR char119
ENCODING 119
SWIDTH 0 0
DWIDTH 0 0
BBX 8 8 0 -2
BITMAP
00
00
00
C6
D6
D6
FE
6C
ENDCHAR
STARTCHAR char120
ENCODING 120
SWIDTH 0 0
DWIDTH 0 0
BBX 8 8 0 -2
BITMAP
00
00
00
C6
6C
38
6C
C6
ENDCHAR
STARTCHAR char121
ENCODING 121
SWIDTH 0 0
DWIDTH 0 0
BBX 8 8 0 -2
BITMAP
00
00
CC
CC
CC
7C
0C
F8
ENDCHAR
STARTCHAR char122
ENCODING 122
SWIDTH 0 0
DWIDTH 0 0
BBX 8 8 0 -2
BITMAP
00
00
00
FE
8C
38
62
FE
ENDCHAR
STARTCHAR char123
ENCODING 123
SWIDTH 0 0
DWIDTH 0 0
BBX 8 8 0 -2
BITMAP
00
0E
18
18
70
18
18
0E
ENDCHAR
STARTCHAR char124
ENCODING 124
SWIDTH 0 0
DWIDTH 0 0
BBX 8 8 0 -2
BITMAP
18
18
18
00
18
18
18
18
ENDCHAR
STARTCHAR char125
ENCODING 125
SWIDTH 0 0
DWIDTH 0 0
BBX 8 8 0 -2
BITMAP
00
70
18
18
0E
18
18
70
ENDCHAR
STARTCHAR char126
ENCODING 126
SWIDTH 0 0
DWIDTH 0 0
BBX 8 8 0 -2
BITMAP
00
76
DC
00
00
00
00
00
ENDCHAR
STARTCHAR char127
ENCODING 127
SWIDTH 0 0
DWIDTH 0 0
BBX 8 8 0 -2
BITMAP
00
10
38
38
6C
6C
FE
00
ENDCHAR
STARTCHAR char128
ENCODING 128
SWIDTH 0 0
DWIDTH 0 0
BBX 8 8 0 -2
BITMAP
00
00
FF
00
00
00
00
00
ENDCHAR
STARTCHAR char129
ENCODING 129
SWIDTH 0 0
DWIDTH 0 0
BBX 8 8 0 -2
BITMAP
18
18
18
18
18
18
00
00
ENDCHAR
STARTCHAR char130
ENCODING 130
SWIDTH 0 0
DWIDTH 0 0
BBX 8 8 0 -2
BITMAP
00
00
00
00
00
1F
00
00
ENDCHAR
STARTCHAR char131
ENCODING 131
SWIDTH 0 0
DWIDTH 0 0
BBX 8 8 0 -2
BITMAP
18
18
18
18
1F
00
00
00
ENDCHAR
STARTCHAR char132
ENCODING 132
SWIDTH 0 0
DWIDTH 0 0
BBX 8 8 0 -2
BITMAP
00
00
00
00
00
18
18
18
ENDCHAR
STARTCHAR char133
ENCODING 133
SWIDTH 0 0
DWIDTH 0 0
BBX 8 8 0 -2
BITMAP
18
18
18
18
18
18
18
18
ENDCHAR
STARTCHAR char134
ENCODING 134
SWIDTH 0 0
DWIDTH 0 0
BBX 8 8 0 -2
BITMAP
00
00
00
00
1F
18
18
18
ENDCHAR
STARTCHAR char135
ENCODING 135
SWIDTH 0 0
DWIDTH 0 0
BBX 8 8 0 -2
BITMAP
18
18
18
18
1F
18
18
18
ENDCHAR
STARTCHAR char136
ENCODING 136
SWIDTH 0 0
DWIDTH 0 0
BBX 8 8 0 -2
BITMAP
00
00
00
00
F8
00
00
00
ENDCHAR
STARTCHAR char137
ENCODING 137
SWIDTH 0 0
DWIDTH 0 0
BBX 8 8 0 -2
BITMAP
18
18
18
18
F8
00
00
00
ENDCHAR
STARTCHAR char138
ENCODING 138
SWIDTH 0 0
DWIDTH 0 0
BBX 8 8 0 -2
BITMAP
00
00
00
00
FF
00
00
00
ENDCHAR
STARTCHAR char139
ENCODING 139
SWIDTH 0 0
DWIDTH 0 0
BBX 8 8 0 -2
BITMAP
18
18
18
18
FF
00
00
00
ENDCHAR
STARTCHAR char140
ENCODING 140
SWIDTH 0 0
DWIDTH 0 0
BBX 8 8 0 -2
BITMAP
00
00
00
00
F8
18
18
18
ENDCHAR
STARTCHAR char141
ENCODING 141
SWIDTH 0 0
DWIDTH 0 0
BBX 8 8 0 -2
BITMAP
18
18
18
18
F8
18
18
18
ENDCHAR
STARTCHAR char142
ENCODING 142
SWIDTH 0 0
DWIDTH 0 0
BBX 8 8 0 -2
BITMAP
00
00
00
00
FF
18
18
18
ENDCHAR
STARTCHAR char143
ENCODING 143
SWIDTH 0 0
DWIDTH 0 0
BBX 8 8 0 -2
BITMAP
18
18
18
18
FF
18
18
18
ENDCHAR
STARTCHAR char144
ENCODING 144
SWIDTH 0 0
DWIDTH 0 0
BBX 8 8 0 -2
BITMAP
00
00
00
00
00
00
00
00
ENDCHAR
STARTCHAR char145
ENCODING 145
SWIDTH 0 0
DWIDTH 0 0
BBX 8 8 0 -2
BITMAP
6C
6C
6C
6C
6C
7C
00
00
ENDCHAR
STARTCHAR char146
ENCODING 146
SWIDTH 0 0
DWIDTH 0 0
BBX 8 8 0 -2
BITMAP
00
00
00
7F
60
7F
00
00
ENDCHAR
STARTCHAR char147
ENCODING 147
SWIDTH 0 0
DWIDTH 0 0
BBX 8 8 0 -2
BITMAP
6C
6C
6C
6F
60
7F
00
00
ENDCHAR
STARTCHAR char148
ENCODING 148
SWIDTH 0 0
DWIDTH 0 0
BBX 8 8 0 -2
BITMAP
00
00
00
7C
6C
6C
6C
6C
ENDCHAR
STARTCHAR char149
ENCODING 149
SWIDTH 0 0
DWIDTH 0 0
BBX 8 8 0 -2
BITMAP
6C
6C
6C
6C
6C
6C
6C
6C
ENDCHAR
STARTCHAR char150
ENCODING 150
SWIDTH 0 0
DWIDTH 0 0
BBX 8 8 0 -2
BITMAP
00
00
00
7F
60
6F
6C
6C
ENDCHAR
STARTCHAR char151
ENCODING 151
SWIDTH 0 0
DWIDTH 0 0
BBX 8 8 0 -2
BITMAP
6C
6C
6C
6F
60
6F
6C
6C
ENDCHAR
STARTCHAR char152
ENCODING 152
SWIDTH 0 0
DWIDTH 0 0
BBX 8 8 0 -2
BITMAP
00
00
00
FC
04
FC
00
00
ENDCHAR
STARTCHAR char153
ENCODING 153
SWIDTH 0 0
DWIDTH 0 0
BBX 8 8 0 -2
BITMAP
6C
6C
6C
EC
0C
FC
00
00
ENDCHAR
STARTCHAR char154
ENCODING 154
SWIDTH 0 0
DWIDTH 0 0
BBX 8 8 0 -2
BITMAP
00
00
00
FF
00
FF
00
00
ENDCHAR
STARTCHAR char155
ENCODING 155
SWIDTH 0 0
DWIDTH 0 0
BBX 8 8 0 -2
BITMAP
6C
6C
6C
EF
00
FF
00
00
ENDCHAR
STARTCHAR char156
ENCODING 156
SWIDTH 0 0
DWIDTH 0 0
BBX 8 8 0 -2
BITMAP
00
00
00
FC
0C
EC
6C
6C
ENDCHAR
STARTCHAR char157
ENCODING 157
SWIDTH 0 0
DWIDTH 0 0
BBX 8 8 0 -2
BITMAP
6C
6C
6C
EC
0C
EC
6C
6C
ENDCHAR
STARTCHAR char158
ENCODING 158
SWIDTH 0 0
DWIDTH 0 0
BBX 8 8 0 -2
BITMAP
00
00
00
FF
00
EF
6C
6C
ENDCHAR
STARTCHAR char159
ENCODING 159
SWIDTH 0 0
DWIDTH 0 0
BBX 8 8 0 -2
BITMAP
6C
6C
6C
EF
00
EF
6C
6C
ENDCHAR
STARTCHAR char160
ENCODING 160
SWIDTH 0 0
DWIDTH 0 0
BBX 8 8 0 -2
BITMAP
00
00
00
00
00
00
00
00
ENDCHAR
STARTCHAR char161
ENCODING 161
SWIDTH 0 0
DWIDTH 0 0
BBX 8 8 0 -2
BITMAP
38
6C
C6
FE
C6
C6
0C
0E
ENDCHAR
STARTCHAR char162
ENCODING 162
SWIDTH 0 0
DWIDTH 0 0
BBX 8 8 0 -2
BITMAP
84
FC
78
00
00
00
00
00
ENDCHAR
STARTCHAR char163
ENCODING 163
SWIDTH 0 0
DWIDTH 0 0
BBX 8 8 0 -2
BITMAP
00
F0
60
70
E0
62
66
FE
ENDCHAR
STARTCHAR char164
ENCODING 164
SWIDTH 0 0
DWIDTH 0 0
BBX 8 8 0 -2
BITMAP
00
C6
7C
6C
6C
7C
C6
00
ENDCHAR
STARTCHAR char165
ENCODING 165
SWIDTH 0 0
DWIDTH 0 0
BBX 8 8 0 -2
BITMAP
00
06
F6
64
60
62
66
FE
ENDCHAR
STARTCHAR char166
ENCODING 166
SWIDTH 0 0
DWIDTH 0 0
BBX 8 8 0 -2
BITMAP
0C
18
00
7C
C0
7C
06
FC
ENDCHAR
STARTCHAR char167
ENCODING 167
SWIDTH 0 0
DWIDTH 0 0
BBX 8 8 0 -2
BITMAP
00
7C
C6
78
C6
3C
C6
7C
ENDCHAR
STARTCHAR char168
ENCODING 168
SWIDTH 0 0
DWIDTH 0 0
BBX 8 8 0 -2
BITMAP
00
66
66
00
00
00
00
00
ENDCHAR
STARTCHAR char169
ENCODING 169
SWIDTH 0 0
DWIDTH 0 0
BBX 8 8 0 -2
BITMAP
66
3C
00
7E
C0
7C
06
FC
ENDCHAR
STARTCHAR char170
ENCODING 170
SWIDTH 0 0
DWIDTH 0 0
BBX 8 8 0 -2
BITMAP
7E
C0
7C
06
86
7C
18
30
ENDCHAR
STARTCHAR char171
ENCODING 171
SWIDTH 0 0
DWIDTH 0 0
BBX 8 8 0 -2
BITMAP
66
3C
00
7E
5A
18
18
3C
ENDCHAR
STARTCHAR char172
ENCODING 172
SWIDTH 0 0
DWIDTH 0 0
BBX 8 8 0 -2
BITMAP
18
30
00
FE
0E
38
E0
FE
ENDCHAR
STARTCHAR char173
ENCODING 173
SWIDTH 0 0
DWIDTH 0 0
BBX 8 8 0 -2
BITMAP
00
7C
00
00
00
00
00
00
ENDCHAR
STARTCHAR char174
ENCODING 174
SWIDTH 0 0
DWIDTH 0 0
BBX 8 8 0 -2
BITMAP
66
3C
00
FE
0E
38
E0
FE
ENDCHAR
STARTCHAR char175
ENCODING 175
SWIDTH 0 0
DWIDTH 0 0
BBX 8 8 0 -2
BITMAP
30
30
00
FE
0E
38
E0
FE
ENDCHAR
STARTCHAR char176
ENCODING 176
SWIDTH 0 0
DWIDTH 0 0
BBX 8 8 0 -2
BITMAP
78
CC
CC
78
00
00
00
00
ENDCHAR
STARTCHAR char177
ENCODING 177
SWIDTH 0 0
DWIDTH 0 0
BBX 8 8 0 -2
BITMAP
00
78
0C
7C
CC
76
0C
0E
ENDCHAR
STARTCHAR char178
ENCODING 178
SWIDTH 0 0
DWIDTH 0 0
BBX 8 8 0 -2
BITMAP
00
00
00
00
00
10
36
1C
ENDCHAR
STARTCHAR char179
ENCODING 179
SWIDTH 0 0
DWIDTH 0 0
BBX 8 8 0 -2
BITMAP
00
38
18
1C
38
18
18
3C
ENDCHAR
STARTCHAR char180
ENCODING 180
SWIDTH 0 0
DWIDTH 0 0
BBX 8 8 0 -2
BITMAP
06
0C
18
00
00
00
00
00
ENDCHAR
STARTCHAR char181
ENCODING 181
SWIDTH 0 0
DWIDTH 0 0
BBX 8 8 0 -2
BITMAP
03
3B
1A
18
18
18
18
3C
ENDCHAR
STARTCHAR char182
ENCODING 182
SWIDTH 0 0
DWIDTH 0 0
BBX 8 8 0 -2
BITMAP
18
30
00
78
C0
78
0C
F8
ENDCHAR
STARTCHAR char183
ENCODING 183
SWIDTH 0 0
DWIDTH 0 0
BBX 8 8 0 -2
BITMAP
CC
78
30
00
00
00
00
00
ENDCHAR
STARTCHAR char184
ENCODING 184
SWIDTH 0 0
DWIDTH 0 0
BBX 8 8 0 -2
BITMAP
00
00
00
00
00
18
6C
38
ENDCHAR
STARTCHAR char185
ENCODING 185
SWIDTH 0 0
DWIDTH 0 0
BBX 8 8 0 -2
BITMAP
CC
78
00
78
C0
78
0C
F8
ENDCHAR
STARTCHAR char186
ENCODING 186
SWIDTH 0 0
DWIDTH 0 0
BBX 8 8 0 -2
BITMAP
00
00
78
C0
78
0C
F8
30
ENDCHAR
STARTCHAR char187
ENCODING 187
SWIDTH 0 0
DWIDTH 0 0
BBX 8 8 0 -2
BITMAP
06
34
30
FC
30
30
36
1C
ENDCHAR
STARTCHAR char188
ENCODING 188
SWIDTH 0 0
DWIDTH 0 0
BBX 8 8 0 -2
BITMAP
00
18
30
00
FC
18
60
FC
ENDCHAR
STARTCHAR char189
ENCODING 189
SWIDTH 0 0
DWIDTH 0 0
BBX 8 8 0 -2
BITMAP
00
66
CC
00
00
00
00
00
ENDCHAR
STARTCHAR char190
ENCODING 190
SWIDTH 0 0
DWIDTH 0 0
BBX 8 8 0 -2
BITMAP
00
CC
78
00
FC
18
60
FC
ENDCHAR
STARTCHAR char191
ENCODING 191
SWIDTH 0 0
DWIDTH 0 0
BBX 8 8 0 -2
BITMAP
00
30
30
00
FC
18
60
FC
ENDCHAR
STARTCHAR char192
ENCODING 192
SWIDTH 0 0
DWIDTH 0 0
BBX 8 8 0 -2
BITMAP
0C
18
00
FC
66
78
6C
E6
ENDCHAR
STARTCHAR char193
ENCODING 193
SWIDTH 0 0
DWIDTH 0 0
BBX 8 8 0 -2
BITMAP
18
30
00
7C
C6
FE
C6
C6
ENDCHAR
STARTCHAR char194
ENCODING 194
SWIDTH 0 0
DWIDTH 0 0
BBX 8 8 0 -2
BITMAP
38
6C
00
7C
C6
FE
C6
C6
ENDCHAR
STARTCHAR char195
ENCODING 195
SWIDTH 0 0
DWIDTH 0 0
BBX 8 8 0 -2
BITMAP
44
7C
00
7C
C6
FE
C6
C6
ENDCHAR
STARTCHAR char196
ENCODING 196
SWIDTH 0 0
DWIDTH 0 0
BBX 8 8 0 -2
BITMAP
C6
C6
00
7C
C6
FE
C6
C6
ENDCHAR
STARTCHAR char197
ENCODING 197
SWIDTH 0 0
DWIDTH 0 0
BBX 8 8 0 -2
BITMAP
18
30
00
F0
60
60
64
FC
ENDCHAR
STARTCHAR char198
ENCODING 198
SWIDTH 0 0
DWIDTH 0 0
BBX 8 8 0 -2
BITMAP
0C
18
00
7C
C6
C0
C6
7C
ENDCHAR
STARTCHAR char199
ENCODING 199
SWIDTH 0 0
DWIDTH 0 0
BBX 8 8 0 -2
BITMAP
3C
66
C0
C0
66
3C
0C
18
ENDCHAR
STARTCHAR char200
ENCODING 200
SWIDTH 0 0
DWIDTH 0 0
BBX 8 8 0 -2
BITMAP
66
3C
00
7C
C6
C0
C6
7C
ENDCHAR
STARTCHAR char201
ENCODING 201
SWIDTH 0 0
DWIDTH 0 0
BBX 8 8 0 -2
BITMAP
18
30
00
FE
62
78
60
FE
ENDCHAR
STARTCHAR char202
ENCODING 202
SWIDTH 0 0
DWIDTH 0 0
BBX 8 8 0 -2
BITMAP
00
FE
60
78
60
FE
30
18
ENDCHAR
STARTCHAR char203
ENCODING 203
SWIDTH 0 0
DWIDTH 0 0
BBX 8 8 0 -2
BITMAP
00
CC
00
FE
62
78
62
FE
ENDCHAR
STARTCHAR char204
ENCODING 204
SWIDTH 0 0
DWIDTH 0 0
BBX 8 8 0 -2
BITMAP
66
3C
00
FE
62
78
62
FE
ENDCHAR
STARTCHAR char205
ENCODING 205
SWIDTH 0 0
DWIDTH 0 0
BBX 8 8 0 -2
BITMAP
0C
18
00
3C
18
18
18
3C
ENDCHAR
STARTCHAR char206
ENCODING 206
SWIDTH 0 0
DWIDTH 0 0
BBX 8 8 0 -2
BITMAP
3C
66
00
3C
18
18
18
3C
ENDCHAR
STARTCHAR char207
ENCODING 207
SWIDTH 0 0
DWIDTH 0 0
BBX 8 8 0 -2
BITMAP
CC
78
00
F8
6C
66
6C
F8
ENDCHAR
STARTCHAR char208
ENCODING 208
SWIDTH 0 0
DWIDTH 0 0
BBX 8 8 0 -2
BITMAP
00
F8
6C
66
F6
66
6C
F8
ENDCHAR
STARTCHAR char209
ENCODING 209
SWIDTH 0 0
DWIDTH 0 0
BBX 8 8 0 -2
BITMAP
0C
18
00
E6
F6
DE
CE
C6
ENDCHAR
STARTCHAR char210
ENCODING 210
SWIDTH 0 0
DWIDTH 0 0
BBX 8 8 0 -2
BITMAP
CC
78
00
E6
F6
DE
CE
C6
ENDCHAR
STARTCHAR char211
ENCODING 211
SWIDTH 0 0
DWIDTH 0 0
BBX 8 8 0 -2
BITMAP
18
30
00
7C
C6
C6
C6
7C
ENDCHAR
STARTCHAR char212
ENCODING 212
SWIDTH 0 0
DWIDTH 0 0
BBX 8 8 0 -2
BITMAP
78
CC
00
7C
C6
C6
C6
7C
ENDCHAR
STARTCHAR char213
ENCODING 213
SWIDTH 0 0
DWIDTH 0 0
BBX 8 8 0 -2
BITMAP
66
CC
00
7C
C6
C6
C6
7C
ENDCHAR
STARTCHAR char214
ENCODING 214
SWIDTH 0 0
DWIDTH 0 0
BBX 8 8 0 -2
BITMAP
C6
C6
00
7C
C6
C6
C6
7C
ENDCHAR
STARTCHAR char215
ENCODING 215
SWIDTH 0 0
DWIDTH 0 0
BBX 8 8 0 -2
BITMAP
00
00
66
3C
18
3C
66
00
ENDCHAR
STARTCHAR char216
ENCODING 216
SWIDTH 0 0
DWIDTH 0 0
BBX 8 8 0 -2
BITMAP
CC
78
00
FC
66
78
6C
E6
ENDCHAR
STARTCHAR char217
ENCODING 217
SWIDTH 0 0
DWIDTH 0 0
BBX 8 8 0 -2
BITMAP
38
6C
38
C6
C6
C6
C6
7C
ENDCHAR
STARTCHAR char218
ENCODING 218
SWIDTH 0 0
DWIDTH 0 0
BBX 8 8 0 -2
BITMAP
18
30
00
C6
C6
C6
C6
7C
ENDCHAR
STARTCHAR char219
ENCODING 219
SWIDTH 0 0
DWIDTH 0 0
BBX 8 8 0 -2
BITMAP
66
CC
00
C6
C6
C6
C6
7C
ENDCHAR
STARTCHAR char220
ENCODING 220
SWIDTH 0 0
DWIDTH 0 0
BBX 8 8 0 -2
BITMAP
C6
C6
00
C6
C6
C6
C6
7C
ENDCHAR
STARTCHAR char221
ENCODING 221
SWIDTH 0 0
DWIDTH 0 0
BBX 8 8 0 -2
BITMAP
0C
18
66
66
66
3C
18
3C
ENDCHAR
STARTCHAR char222
ENCODING 222
SWIDTH 0 0
DWIDTH 0 0
BBX 8 8 0 -2
BITMAP
FF
DB
99
18
18
3C
18
30
ENDCHAR
STARTCHAR char223
ENCODING 223
SWIDTH 0 0
DWIDTH 0 0
BBX 8 8 0 -2
BITMAP
00
78
CC
D8
FC
C6
DC
C0
ENDCHAR
STARTCHAR char224
ENCODING 224
SWIDTH 0 0
DWIDTH 0 0
BBX 8 8 0 -2
BITMAP
0C
18
00
DC
66
60
60
F0
ENDCHAR
STARTCHAR char225
ENCODING 225
SWIDTH 0 0
DWIDTH 0 0
BBX 8 8 0 -2
BITMAP
0C
18
00
78
0C
7C
CC
76
ENDCHAR
STARTCHAR char226
ENCODING 226
SWIDTH 0 0
DWIDTH 0 0
BBX 8 8 0 -2
BITMAP
38
6C
00
78
0C
7C
CC
76
ENDCHAR
STARTCHAR char227
ENCODING 227
SWIDTH 0 0
DWIDTH 0 0
BBX 8 8 0 -2
BITMAP
CC
78
00
78
0C
7C
CC
76
ENDCHAR
STARTCHAR char228
ENCODING 228
SWIDTH 0 0
DWIDTH 0 0
BBX 8 8 0 -2
BITMAP
CC
CC
00
78
0C
7C
CC
76
ENDCHAR
STARTCHAR char229
ENCODING 229
SWIDTH 0 0
DWIDTH 0 0
BBX 8 8 0 -2
BITMAP
06
0C
38
18
18
18
18
3C
ENDCHAR
STARTCHAR char230
ENCODING 230
SWIDTH 0 0
DWIDTH 0 0
BBX 8 8 0 -2
BITMAP
18
30
00
78
CC
C0
CC
78
ENDCHAR
STARTCHAR char231
ENCODING 231
SWIDTH 0 0
DWIDTH 0 0
BBX 8 8 0 -2
BITMAP
00
78
CC
C0
CC
78
30
60
ENDCHAR
STARTCHAR char232
ENCODING 232
SWIDTH 0 0
DWIDTH 0 0
BBX 8 8 0 -2
BITMAP
CC
78
00
78
CC
C0
CC
78
ENDCHAR
STARTCHAR char233
ENCODING 233
SWIDTH 0 0
DWIDTH 0 0
BBX 8 8 0 -2
BITMAP
18
30
00
78
CC
FC
C0
7C
ENDCHAR
STARTCHAR char234
ENCODING 234
SWIDTH 0 0
DWIDTH 0 0
BBX 8 8 0 -2
BITMAP
00
78
CC
FC
C0
7C
30
18
ENDCHAR
STARTCHAR char235
ENCODING 235
SWIDTH 0 0
DWIDTH 0 0
BBX 8 8 0 -2
BITMAP
CC
CC
00
78
CC
FC
C0
7C
ENDCHAR
STARTCHAR char236
ENCODING 236
SWIDTH 0 0
DWIDTH 0 0
BBX 8 8 0 -2
BITMAP
CC
78
00
78
CC
FC
C0
7C
ENDCHAR
STARTCHAR char237
ENCODING 237
SWIDTH 0 0
DWIDTH 0 0
BBX 8 8 0 -2
BITMAP
0C
18
30
00
38
18
18
3C
ENDCHAR
STARTCHAR char238
ENCODING 238
SWIDTH 0 0
DWIDTH 0 0
BBX 8 8 0 -2
BITMAP
00
38
6C
00
38
18
18
3C
ENDCHAR
STARTCHAR char239
ENCODING 239
SWIDTH 0 0
DWIDTH 0 0
BBX 8 8 0 -2
BITMAP
06
02
1E
0C
7C
CC
CC
7E
ENDCHAR
STARTCHAR char240
ENCODING 240
SWIDTH 0 0
DWIDTH 0 0
BBX 8 8 0 -2
BITMAP
1C
0C
1E
0C
7C
CC
CC
7E
ENDCHAR
STARTCHAR char241
ENCODING 241
SWIDTH 0 0
DWIDTH 0 0
BBX 8 8 0 -2
BITMAP
00
0C
18
00
DC
66
66
66
ENDCHAR
STARTCHAR char242
ENCODING 242
SWIDTH 0 0
DWIDTH 0 0
BBX 8 8 0 -2
BITMAP
00
CC
78
00
DC
66
66
66
ENDCHAR
STARTCHAR char243
ENCODING 243
SWIDTH 0 0
DWIDTH 0 0
BBX 8 8 0 -2
BITMAP
0C
18
30
00
78
CC
CC
78
ENDCHAR
STARTCHAR char244
ENCODING 244
SWIDTH 0 0
DWIDTH 0 0
BBX 8 8 0 -2
BITMAP
30
78
CC
00
78
CC
CC
78
ENDCHAR
STARTCHAR char245
ENCODING 245
SWIDTH 0 0
DWIDTH 0 0
BBX 8 8 0 -2
BITMAP
33
66
CC
00
78
CC
CC
78
ENDCHAR
STARTCHAR char246
ENCODING 246
SWIDTH 0 0
DWIDTH 0 0
BBX 8 8 0 -2
BITMAP
00
CC
CC
00
78
CC
CC
78
ENDCHAR
STARTCHAR char247
ENCODING 247
SWIDTH 0 0
DWIDTH 0 0
BBX 8 8 0 -2
BITMAP
00
18
18
00
7E
00
18
18
ENDCHAR
STARTCHAR char248
ENCODING 248
SWIDTH 0 0
DWIDTH 0 0
BBX 8 8 0 -2
BITMAP
CC
78
00
DC
66
60
60
F0
ENDCHAR
STARTCHAR char249
ENCODING 249
SWIDTH 0 0
DWIDTH 0 0
BBX 8 8 0 -2
BITMAP
38
6C
38
00
C6
C6
CE
76
ENDCHAR
STARTCHAR char250
ENCODING 250
SWIDTH 0 0
DWIDTH 0 0
BBX 8 8 0 -2
BITMAP
18
30
60
00
CC
CC
DC
76
ENDCHAR
STARTCHAR char251
ENCODING 251
SWIDTH 0 0
DWIDTH 0 0
BBX 8 8 0 -2
BITMAP
36
6C
D8
00
C6
C6
CE
76
ENDCHAR
STARTCHAR char252
ENCODING 252
SWIDTH 0 0
DWIDTH 0 0
BBX 8 8 0 -2
BITMAP
00
C6
C6
00
C6
C6
CE
76
ENDCHAR
STARTCHAR char253
ENCODING 253
SWIDTH 0 0
DWIDTH 0 0
BBX 8 8 0 -2
BITMAP
18
30
00
CC
CC
34
CC
78
ENDCHAR
STARTCHAR char254
ENCODING 254
SWIDTH 0 0
DWIDTH 0 0
BBX 8 8 0 -2
BITMAP
00
30
FC
30
30
36
1C
0C
ENDCHAR
STARTCHAR char255
ENCODING 255
SWIDTH 0 0
DWIDTH 0 0
BBX 8 8 0 -2
BITMAP
00
18
18
00
00
00
00
00
ENDCHAR
ENDFONT
